# File created by Blade
# Date/Time:  Tue Sep 30 19:12:16 2014
#---------------------------------------------------------
:version 1.10
:name HOM
:units
  mass 1.0
  length 1.000000
  angle deg
:documentation
     Acclaim Skeleton File
:root
   axis xyz
   order TX TY TZ RX RY RZ
   position 0.000000 0.000000 0.000000
   orientation 0 0 0
:bonedata
   begin
      id 1
      name Spine_dum
      direction 0.000000 1.000000 0.000000
      length 7.508948
      axis 0.0 0.0 0.0 xyz
   end
   begin
      id 2
      name LeftUpLeg_dum
      direction 1.000000 0.000000 0.000000
      length 3.000560
      axis 0.0 0.0 0.0 xyz
   end
   begin
      id 3
      name RightUpLeg_dum
      direction -1.000000 0.000000 0.000000
      length 3.000560
      axis 0.0 0.0 0.0 xyz
   end
   begin
      id 4
      name Spine
      direction 0.000000 1.000000 0.000000
      length 0.000000
      axis 0.0 0.0 0.0 xyz
      dof rx ry rz
   end
   begin
      id 5
      name Spine_dum1
      direction 0.000000 1.000000 0.000000
      length 13.861154
      axis 0.0 0.0 0.0 xyz
   end
   begin
      id 6
      name Spine_dum2
      direction 0.000000 1.000000 0.000000
      length 8.204781
      axis 0.0 0.0 0.0 xyz
   end
   begin
      id 7
      name Spine_dum3
      direction 0.000000 1.000000 0.000000
      length 8.204781
      axis 0.0 0.0 0.0 xyz
   end
   begin
      id 8
      name Head
      direction 0.000000 1.000000 0.000000
      length 4.527550
      axis 0.0 0.0 0.0 xyz
      dof rx ry rz
   end
   begin
      id 9
      name LeftShoulder
      direction 1.000000 0.000000 0.000000
      length 6.635956
      axis 0.0 0.0 -90.0 xyz
      dof rx ry rz
   end
   begin
      id 10
      name LeftArm
      direction 1.000000 0.000000 0.000000
      length 10.274218
      axis 0.0 0.0 -90.0 xyz
      dof rx ry rz
   end
   begin
      id 11
      name LeftForeArm
      direction 1.000000 0.000000 0.000000
      length 8.522147
      axis 0.0 0.0 -90.0 xyz
      dof ry rz rx
   end
   begin
      id 12
      name LeftHand
      direction 0.000000 0.000000 0.000000
      length 0.000000
      axis 0.0 0.0 -90.0 xyz
      dof rx ry rz
   end
   begin
      id 13
      name LeftHand_dum1
      direction 0.000000 0.000000 0.000000
      length 0.000000
      axis 0.0 0.0 -90.0 xyz
   end
   begin
      id 14
      name LeftHand_dum2
      direction 1.000000 0.000000 0.000000
      length 3.937000
      axis 0.0 0.0 -90.0 xyz
   end
   begin
      id 15
      name LeftHandThumb1
      direction 0.000000 0.000000 1.000000
      length 3.937000
      axis 0.0 0.0 -90.0 xyz
      dof rx rz ry
   end
   begin
      id 16
      name RightShoulder
      direction -1.000000 0.000000 0.000000
      length 6.635956
      axis 0.0 0.0 90.0 xyz
      dof rx ry rz
   end
   begin
      id 17
      name RightArm
      direction -1.000000 0.000000 0.000000
      length 10.274218
      axis 0.0 0.0 90.0 xyz
      dof rx ry rz
   end
   begin
      id 18
      name RightForeArm
      direction -1.000000 0.000000 0.000000
      length 8.522147
      axis 0.0 0.0 90.0 xyz
      dof ry rz rx
   end
   begin
      id 19
      name RightHand
      direction 0.000000 0.000000 0.000000
      length 0.000000
      axis 0.0 0.0 90.0 xyz
      dof rx ry rz
   end
   begin
      id 20
      name RightHand_dum1
      direction 0.000000 0.000000 0.000000
      length 0.000000
      axis 0.0 0.0 90.0 xyz
   end
   begin
      id 21
      name RightHand_dum2
      direction -1.000000 0.000000 0.000000
      length 3.937000
      axis 0.0 0.0 90.0 xyz
   end
   begin
      id 22
      name RightHandThumb1
      direction 0.000000 0.000000 1.000000
      length 3.937000
      axis 0.0 0.0 90.0 xyz
      dof rx rz ry
   end
   begin
      id 23
      name LeftUpLeg
      direction 0.000000 -1.000000 0.000000
      length 16.490845
      axis 0.0 0.0 0.0 xyz
      dof rx ry rz
   end
   begin
      id 24
      name LeftLeg
      direction 0.000000 -1.000000 0.000000
      length 14.556576
      axis 0.0 0.0 0.0 xyz
      dof rx ry rz
   end
   begin
      id 25
      name LeftFoot
      direction 0.000000 -0.258819 0.965926
      length 4.831116
      axis 15.0 0.0 0.0 xyz
      dof rx ry rz
   end
   begin
      id 26
      name LeftToeBase
      direction 0.000000 0.000000 1.000000
      length 2.952750
      axis 0.0 0.0 0.0 xyz
      dof rx ry rz
   end
   begin
      id 27
      name RightUpLeg
      direction 0.000000 -1.000000 0.000000
      length 16.490845
      axis 0.0 0.0 0.0 xyz
      dof rx ry rz
   end
   begin
      id 28
      name RightLeg
      direction 0.000000 -1.000000 0.000000
      length 14.556576
      axis 0.0 0.0 0.0 xyz
      dof rx ry rz
   end
   begin
      id 29
      name RightFoot
      direction 0.000000 -0.258819 0.965926
      length 4.831116
      axis 15.0 0.0 0.0 xyz
      dof rx ry rz
   end
   begin
      id 30
      name RightToeBase
      direction 0.000000 0.000000 1.000000
      length 2.952750
      axis 0.0 0.0 0.0 xyz
      dof rx ry rz
   end
:hierarchy
   begin
      root Spine_dum LeftUpLeg_dum RightUpLeg_dum
      Spine_dum Spine
      LeftUpLeg_dum LeftUpLeg
      RightUpLeg_dum RightUpLeg
      Spine Spine_dum1 Spine_dum2 Spine_dum3
      Spine_dum1 Head
      Spine_dum2 LeftShoulder
      Spine_dum3 RightShoulder
      LeftShoulder LeftArm
      LeftArm LeftForeArm
      LeftForeArm LeftHand
      LeftHand LeftHand_dum1 LeftHand_dum2
      LeftHand_dum1 LeftHandThumb1
      RightShoulder RightArm
      RightArm RightForeArm
      RightForeArm RightHand
      RightHand RightHand_dum1 RightHand_dum2
      RightHand_dum1 RightHandThumb1
      LeftUpLeg LeftLeg
      LeftLeg LeftFoot
      LeftFoot LeftToeBase
      RightUpLeg RightLeg
      RightLeg RightFoot
      RightFoot RightToeBase
   end

# File created by Blade
# Date/Time:  Thu Sep 25 17:33:50 2014
# Frame Rate: 120.000 fps
#------------------------------------------------------
:FULLY-SPECIFIED
:DEGREES
90
root -5.818295 32.597539 -9.264042 11.883165 -1.146272 3.245768
Spine -6.474090 5.126429 -2.951834
Head -15.769233 -3.668147 12.951969
LeftShoulder -11.491592 27.435633 19.143637
LeftArm 21.715641 -11.365988 -56.356543
LeftForeArm 12.575207 0.000000 71.260333
LeftHand -27.167720 -0.000000 11.639419
LeftHandThumb1 -26.253704 0.000000 33.147579
RightShoulder -20.177166 5.003338 -26.467135
RightArm -11.826540 -16.421002 66.099801
RightForeArm -24.226989 -0.000000 70.530458
RightHand -5.242194 -0.000000 -16.602079
RightHandThumb1 -24.326973 -0.000000 -32.862282
LeftUpLeg -5.313929 3.451343 -6.002213
LeftLeg 0.602474 -0.000000 -0.000000
LeftFoot -17.898479 14.161650 -22.914975
LeftToeBase 5.644831 -0.000000 -0.000000
RightUpLeg -33.206390 -5.084056 -8.683611
RightLeg 42.384508 -0.000000 -0.000000
RightFoot -9.092773 -16.314539 -1.336660
RightToeBase -1.412391 -0.000000 0.000000
91
root -5.755395 32.599924 -9.307008 11.959217 -1.230387 3.261774
Spine -6.426108 5.010397 -2.988798
Head -15.920458 -3.516140 12.926510
LeftShoulder -11.620067 27.621982 18.873216
LeftArm 22.016466 -10.238696 -56.646077
LeftForeArm 12.767176 -0.000000 72.657414
LeftHand -27.112018 -0.000000 11.717387
LeftHandThumb1 -26.253704 0.000000 33.147579
RightShoulder -20.189154 5.005809 -26.307607
RightArm -11.747941 -17.374491 67.022703
RightForeArm -24.012684 -0.000000 71.332283
RightHand -4.656423 0.000000 -16.808204
RightHandThumb1 -24.326973 -0.000000 -32.862282
LeftUpLeg -5.314453 3.480608 -6.139740
LeftLeg 0.288652 -0.000000 -0.000000
LeftFoot -17.794102 14.208125 -22.954900
LeftToeBase 5.938112 -0.000000 -0.000000
RightUpLeg -34.111768 -5.596378 -8.304131
RightLeg 43.637158 -0.000000 -0.000000
RightFoot -9.258875 -16.364538 -1.031311
RightToeBase -1.447300 -0.000000 0.000000
92
root -5.698610 32.603177 -9.348403 12.058949 -1.280518 3.261482
Spine -6.399295 4.894756 -3.007315
Head -16.090389 -3.412124 12.937528
LeftShoulder -11.748783 27.751595 18.575225
LeftArm 22.352820 -9.042878 -56.846848
LeftForeArm 13.027277 -0.000000 74.019311
LeftHand -27.051337 -0.000000 11.817009
LeftHandThumb1 -26.253704 0.000000 33.147579
RightShoulder -20.107714 5.112487 -26.161369
RightArm -11.973911 -18.157384 68.023654
RightForeArm -23.950188 -0.000000 72.315993
RightHand -4.625672 -0.000000 -17.023840
RightHandThumb1 -24.326973 -0.000000 -32.862282
LeftUpLeg -5.357295 3.448537 -6.243479
LeftLeg 0.026974 -0.000000 -0.000000
LeftFoot -17.715004 14.261062 -23.049585
LeftToeBase 6.094653 -0.000000 -0.000000
RightUpLeg -35.002472 -6.067489 -7.900173
RightLeg 44.858495 -0.000000 -0.000000
RightFoot -9.447596 -16.329303 -0.767902
RightToeBase -1.203706 -0.000000 0.000000
93
root -5.645264 32.607295 -9.389187 12.139945 -1.334402 3.242534
Spine -6.354634 4.812787 -3.017228
Head -16.224504 -3.258924 12.962876
LeftShoulder -11.783330 27.697166 18.389263
LeftArm 22.557177 -7.702655 -57.050261
LeftForeArm 13.304259 0.000000 75.355125
LeftHand -27.011286 -0.000000 11.964640
LeftHandThumb1 -26.253704 0.000000 33.147579
RightShoulder -20.044945 5.149039 -26.002641
RightArm -12.142926 -18.879898 69.029692
RightForeArm -24.031352 -0.000000 73.295885
RightHand -4.469794 0.000000 -16.947461
RightHandThumb1 -24.326973 -0.000000 -32.862282
LeftUpLeg -5.409806 3.476821 -6.323736
LeftLeg -0.175595 -0.000000 0.000000
LeftFoot -17.670502 14.230524 -23.208033
LeftToeBase 6.363722 -0.000000 -0.000000
RightUpLeg -35.861995 -6.496662 -7.452988
RightLeg 46.045194 -0.000000 -0.000000
RightFoot -9.557101 -16.393393 -0.700135
RightToeBase -1.163536 -0.000000 0.000000
94
root -5.596397 32.611611 -9.428458 12.259382 -1.347266 3.223216
Spine -6.349639 4.774848 -3.023455
Head -16.436976 -3.237038 12.967479
LeftShoulder -11.796523 27.736983 18.209054
LeftArm 22.971181 -6.315968 -57.191399
LeftForeArm 13.563200 -0.000000 76.588710
LeftHand -27.148518 0.000000 12.195963
LeftHandThumb1 -26.253704 0.000000 33.147579
RightShoulder -20.084732 5.074628 -25.835934
RightArm -12.197855 -19.570135 69.971365
RightForeArm -24.092248 -0.000000 74.284805
RightHand -4.257525 0.000000 -16.827898
RightHandThumb1 -24.326973 -0.000000 -32.862282
LeftUpLeg -5.494383 3.314329 -6.384697
LeftLeg -0.380864 -0.000000 0.000000
LeftFoot -17.648191 14.388146 -23.284603
LeftToeBase 6.550753 -0.000000 -0.000000
RightUpLeg -36.727172 -6.944597 -6.986104
RightLeg 47.197507 -0.000000 -0.000000
RightFoot -9.858245 -16.305103 -0.009301
RightToeBase -1.432294 -0.000000 0.000000
95
root -5.550667 32.614125 -9.466776 12.327949 -1.354285 3.200229
Spine -6.281353 4.685296 -3.024653
Head -16.621857 -3.158734 13.028500
LeftShoulder -11.777849 27.728002 18.112442
LeftArm 23.311286 -4.872864 -57.352675
LeftForeArm 13.701351 -0.000000 77.802257
LeftHand -27.039492 0.000000 12.270087
LeftHandThumb1 -26.253704 0.000000 33.147579
RightShoulder -20.006503 5.066458 -25.676641
RightArm -12.360662 -20.237175 70.900369
RightForeArm -24.123823 -0.000000 75.317580
RightHand -4.027458 -0.000000 -16.646192
RightHandThumb1 -24.326973 -0.000000 -32.862282
LeftUpLeg -5.596562 3.473742 -6.452542
LeftLeg -0.442708 -0.000000 0.000000
LeftFoot -17.559242 14.171009 -23.348943
LeftToeBase 6.574463 -0.000000 -0.000000
RightUpLeg -37.538135 -7.423212 -6.472891
RightLeg 48.319285 -0.000000 -0.000000
RightFoot -10.154380 -16.182456 0.298363
RightToeBase -1.148568 -0.000000 0.000000
96
root -5.506525 32.618366 -9.500869 12.418419 -1.359066 3.138425
Spine -6.229046 4.672026 -2.961440
Head -16.878616 -3.105194 13.021142
LeftShoulder -11.760380 27.663347 18.010817
LeftArm 23.760124 -3.244151 -57.378975
LeftForeArm 14.070094 -0.000000 78.932313
LeftHand -27.312447 -0.000000 12.467856
LeftHandThumb1 -26.253704 0.000000 33.147579
RightShoulder -20.059899 4.980330 -25.539704
RightArm -12.413724 -20.986028 71.784209
RightForeArm -24.323333 -0.000000 76.312505
RightHand -3.941971 -0.000000 -17.063116
RightHandThumb1 -24.326973 -0.000000 -32.862282
LeftUpLeg -5.734140 3.658700 -6.484520
LeftLeg -0.465415 -0.000000 0.000000
LeftFoot -17.485368 13.938292 -23.388336
LeftToeBase 6.635150 -0.000000 -0.000000
RightUpLeg -38.323958 -7.794204 -5.939542
RightLeg 49.358280 -0.000000 -0.000000
RightFoot -10.483059 -16.046287 0.730556
RightToeBase -0.886442 -0.000000 0.000000
97
root -5.461875 32.622148 -9.537251 12.516659 -1.305356 3.094389
Spine -6.169276 4.570155 -2.875369
Head -17.141623 -3.049599 12.972476
LeftShoulder -11.721905 27.736587 17.885535
LeftArm 24.319989 -1.715173 -57.373998
LeftForeArm 14.410893 -0.000000 80.022121
LeftHand -27.276415 -0.000000 12.487685
LeftHandThumb1 -26.253704 0.000000 33.147579
RightShoulder -20.102079 4.916605 -25.472867
RightArm -12.446133 -21.741733 72.686433
RightForeArm -24.334896 -0.000000 77.280895
RightHand -3.859735 -0.000000 -17.205435
RightHandThumb1 -24.326973 -0.000000 -32.862282
LeftUpLeg -5.909010 3.769534 -6.527300
LeftLeg -0.436794 -0.000000 0.000000
LeftFoot -17.442518 13.729457 -23.431849
LeftToeBase 6.673911 -0.000000 -0.000000
RightUpLeg -39.101967 -8.277865 -5.364800
RightLeg 50.330757 -0.000000 -0.000000
RightFoot -10.813043 -16.080195 1.220787
RightToeBase -1.207442 -0.000000 0.000000
98
root -5.422844 32.626074 -9.568648 12.583097 -1.280340 3.054493
Spine -6.097812 4.470234 -2.809758
Head -17.352450 -2.989847 12.933199
LeftShoulder -11.676728 27.836734 17.778370
LeftArm 24.919740 -0.146026 -57.258062
LeftForeArm 14.646314 -0.000000 81.057805
LeftHand -27.179934 0.000000 12.504224
LeftHandThumb1 -26.253704 0.000000 33.147579
RightShoulder -20.056332 4.868182 -25.403429
RightArm -12.548411 -22.435500 73.627360
RightForeArm -24.380684 0.000000 78.269219
RightHand -3.626033 -0.000000 -17.494779
RightHandThumb1 -24.326973 -0.000000 -32.862282
LeftUpLeg -6.041660 3.904616 -6.568999
LeftLeg -0.412689 -0.000000 0.000000
LeftFoot -17.401978 13.553905 -23.454028
LeftToeBase 6.843175 -0.000000 -0.000000
RightUpLeg -39.810832 -8.666419 -4.822304
RightLeg 51.227023 -0.000000 -0.000000
RightFoot -11.068679 -15.918731 1.499784
RightToeBase -1.501845 -0.000000 0.000000
99
root -5.384036 32.629636 -9.599467 12.653012 -1.228071 3.012337
Spine -6.020293 4.418804 -2.733158
Head -17.614320 -2.999112 12.902193
LeftShoulder -11.512991 27.760762 17.747129
LeftArm 25.442636 1.529785 -57.059790
LeftForeArm 14.673667 -0.000000 82.058667
LeftHand -27.035658 -0.000000 12.515541
LeftHandThumb1 -26.253704 0.000000 33.147579
RightShoulder -20.096158 4.739147 -25.345277
RightArm -12.577326 -23.090336 74.548759
RightForeArm -24.378491 0.000000 79.221346
RightHand -3.508105 -0.000000 -17.841959
RightHandThumb1 -24.326973 -0.000000 -32.862282
LeftUpLeg -6.181808 4.064434 -6.612698
LeftLeg -0.385971 -0.000000 0.000000
LeftFoot -17.349548 13.335332 -23.513101
LeftToeBase 6.869143 -0.000000 -0.000000
RightUpLeg -40.504373 -9.040651 -4.271997
RightLeg 52.085330 -0.000000 -0.000000
RightFoot -11.432844 -15.723117 2.010918
RightToeBase -1.373953 -0.000000 0.000000
100
root -5.351982 32.634228 -9.622545 12.714989 -1.173160 2.963922
Spine -5.941602 4.328130 -2.666535
Head -17.898438 -2.971454 12.879956
LeftShoulder -11.412389 27.711393 17.658256
LeftArm 26.038477 3.199899 -56.681160
LeftForeArm 14.557787 0.000000 82.980973
LeftHand -26.565104 -0.000000 12.413494
LeftHandThumb1 -26.253704 0.000000 33.147579
RightShoulder -20.169080 4.661243 -25.290813
RightArm -12.608250 -23.799498 75.495597
RightForeArm -24.521433 -0.000000 80.124922
RightHand -3.511199 0.000000 -18.490754
RightHandThumb1 -24.326973 -0.000000 -32.862282
LeftUpLeg -6.300331 4.271100 -6.640341
LeftLeg -0.360093 -0.000000 0.000000
LeftFoot -17.278822 13.065742 -23.548367
LeftToeBase 6.901238 -0.000000 -0.000000
RightUpLeg -41.106791 -9.318718 -3.749875
RightLeg 52.818484 -0.000000 -0.000000
RightFoot -11.670128 -15.531311 2.104770
RightToeBase -1.414592 -0.000000 0.000000
101
root -5.315903 32.638405 -9.647014 12.769829 -1.083166 2.934533
Spine -5.846547 4.181613 -2.583583
Head -18.140623 -2.908666 12.840325
LeftShoulder -11.373255 27.850988 17.510023
LeftArm 26.917026 4.812463 -56.278222
LeftForeArm 14.641639 -0.000000 83.876083
LeftHand -26.422046 0.000000 12.300782
LeftHandThumb1 -26.253704 0.000000 33.147579
RightShoulder -20.167729 4.653500 -25.261760
RightArm -12.710620 -24.339834 76.443681
RightForeArm -24.351520 -0.000000 81.012449
RightHand -3.156997 -0.000000 -18.793173
RightHandThumb1 -24.326973 -0.000000 -32.862282
LeftUpLeg -6.428008 4.406280 -6.685240
LeftLeg -0.305038 -0.000000 0.000000
LeftFoot -17.190001 12.863785 -23.527785
LeftToeBase 6.824016 -0.000000 -0.000000
RightUpLeg -41.702953 -9.668811 -3.228079
RightLeg 53.509756 -0.000000 -0.000000
RightFoot -11.919363 -15.278721 2.302719
RightToeBase -1.306080 -0.000000 0.000000
